<svg width="450" height="800" viewBox="0 0 450 800" fill="none" xmlns="http://www.w3.org/2000/svg">
<rect x="60" y="160" width="330" height="10" fill="white" fill-opacity="0.5"/>
<rect x="220" y="170" width="10" height="460" fill="white" fill-opacity="0.5"/>
<rect x="50" y="10" width="10" height="780" fill="white" fill-opacity="0.5"/>
<rect x="390" y="10" width="10" height="780" fill="white" fill-opacity="0.5"/>
<rect x="60" y="630" width="330" height="10" fill="white" fill-opacity="0.5"/>
<rect x="5" y="5" width="440" height="790" stroke="white" stroke-opacity="0.5" stroke-width="10"/>
<rect x="19.846" y="379.749" width="2" height="28.9521" transform="rotate(-31.7659 19.846 379.749)" fill="white"/>
<rect x="13.8385" y="373.717" width="2" height="37.56" transform="rotate(-31.7659 13.8385 373.717)" fill="black"/>
<rect x="51" y="380.968" width="2" height="27.4549" transform="rotate(-28.9553 51 380.968)" fill="white"/>
<rect x="59" y="380.968" width="2" height="27.1324" transform="rotate(-28.9553 59 380.968)" fill="white"/>
<rect x="66.3971" y="381.249" width="2" height="26.6799" transform="rotate(-28.0318 66.3971 381.249)" fill="white"/>
<rect x="74.5126" y="381.032" width="2" height="26.3327" transform="rotate(-26.2294 74.5126 381.032)" fill="white"/>
<rect x="82.5132" y="381.209" width="2" height="25.793" transform="rotate(-24.7942 82.5132 381.209)" fill="white"/>
<rect x="90.6652" y="381.487" width="2" height="24.9036" transform="rotate(-23.2674 90.6652 381.487)" fill="white"/>
<rect x="99" y="381.712" width="2" height="24.9036" transform="rotate(-20.8427 99 381.712)" fill="white"/>
<rect x="114.237" y="381.177" width="2" height="24.7551" transform="rotate(-18.7489 114.237 381.177)" fill="white"/>
<rect x="122.261" y="381.533" width="2" height="24.4583" transform="rotate(-17.4288 122.261 381.533)" fill="white"/>
<rect x="130" y="380.533" width="2" height="24.4583" transform="rotate(-15.4533 130 380.533)" fill="white"/>
<rect x="138" y="381.5" width="2" height="23.668" transform="rotate(-14.4816 138 381.5)" fill="white"/>
<rect x="145" y="381.5" width="2" height="23.668" transform="rotate(-14.4816 145 381.5)" fill="white"/>
<rect x="153.323" y="381.392" width="2" height="23.668" transform="rotate(-12.8404 153.323 381.392)" fill="white"/>
<rect x="161.549" y="381.284" width="2" height="23.668" transform="rotate(-10.082 161.549 381.284)" fill="white"/>
<rect x="169.366" y="381.259" width="2" height="23.668" transform="rotate(-8.26405 169.366 381.259)" fill="white"/>
<rect x="177.414" y="381.211" width="1.87682" height="22.6754" transform="rotate(-6.86483 177.414 381.211)" fill="white"/>
<rect x="185" y="381.178" width="1.87682" height="22.6754" transform="rotate(-5.43959 185 381.178)" fill="white"/>
<rect x="193" y="381.133" width="1.87682" height="22.6754" transform="rotate(-4.07715 193 381.133)" fill="white"/>
<rect x="201" y="381.043" width="1.87682" height="22.6754" transform="rotate(-1.31346 201 381.043)" fill="white"/>
<rect x="209" y="381.043" width="1.87682" height="22.6754" transform="rotate(-1.31346 209 381.043)" fill="white"/>
<rect x="216" y="381.043" width="1.87682" height="22.6754" transform="rotate(-1.31346 216 381.043)" fill="white"/>
<rect x="223.977" y="381.021" width="1.87682" height="23.6972" transform="rotate(-1.31346 223.977 381.021)" fill="white"/>
<rect x="106" y="380.712" width="2" height="24.9036" transform="rotate(-20.8427 106 380.712)" fill="white"/>
<rect x="43" y="381.053" width="2" height="27.7556" transform="rotate(-31.7659 43 381.053)" fill="white"/>
<rect x="35" y="381.053" width="2" height="27.7556" transform="rotate(-31.7659 35 381.053)" fill="white"/>
<rect x="28" y="381.053" width="2" height="27.7556" transform="rotate(-31.7659 28 381.053)" fill="white"/>
<rect width="2" height="27.4549" transform="matrix(-0.874998 -0.484127 -0.484127 0.874998 398.396 380.968)" fill="white"/>
<rect width="2" height="27.1324" transform="matrix(-0.874998 -0.484127 -0.484127 0.874998 390.396 380.968)" fill="white"/>
<rect width="2" height="26.6799" transform="matrix(-0.882687 -0.469961 -0.469961 0.882687 382.999 381.249)" fill="white"/>
<rect width="2" height="26.3327" transform="matrix(-0.897031 -0.441966 -0.441966 0.897031 374.884 381.032)" fill="white"/>
<rect width="2" height="25.793" transform="matrix(-0.90782 -0.41936 -0.41936 0.90782 366.883 381.209)" fill="white"/>
<rect width="2" height="24.9036" transform="matrix(-0.918671 -0.395022 -0.395022 0.918671 358.731 381.487)" fill="white"/>
<rect width="2" height="24.9036" transform="matrix(-0.934561 -0.355804 -0.355804 0.934561 350.396 381.712)" fill="white"/>
<rect width="2" height="24.7551" transform="matrix(-0.946936 -0.321421 -0.321421 0.946936 335.159 381.177)" fill="white"/>
<rect width="2" height="24.4583" transform="matrix(-0.95409 -0.29952 -0.29952 0.95409 327.135 381.533)" fill="white"/>
<rect width="2" height="24.4583" transform="matrix(-0.963848 -0.266454 -0.266454 0.963848 319.396 380.533)" fill="white"/>
<rect width="2" height="23.668" transform="matrix(-0.968228 -0.250069 -0.250069 0.968228 311.396 381.5)" fill="white"/>
<rect width="2" height="23.668" transform="matrix(-0.968228 -0.250069 -0.250069 0.968228 304.396 381.5)" fill="white"/>
<rect width="2" height="23.668" transform="matrix(-0.974993 -0.222236 -0.222236 0.974993 296.073 381.392)" fill="white"/>
<rect width="2" height="23.668" transform="matrix(-0.984558 -0.175057 -0.175057 0.984558 287.847 381.284)" fill="white"/>
<rect width="2" height="23.668" transform="matrix(-0.989616 -0.143735 -0.143735 0.989616 280.03 381.259)" fill="white"/>
<rect width="1.87682" height="22.6754" transform="matrix(-0.992831 -0.119527 -0.119527 0.992831 271.982 381.211)" fill="white"/>
<rect width="1.87682" height="22.6754" transform="matrix(-0.995497 -0.0947963 -0.0947963 0.995497 264.396 381.178)" fill="white"/>
<rect width="1.87682" height="22.6754" transform="matrix(-0.997469 -0.0710997 -0.0710997 0.997469 256.396 381.133)" fill="white"/>
<rect width="1.87682" height="22.6754" transform="matrix(-0.999737 -0.0229221 -0.0229221 0.999737 248.396 381.043)" fill="white"/>
<rect width="1.87682" height="22.6754" transform="matrix(-0.999737 -0.0229221 -0.0229221 0.999737 240.396 381.043)" fill="white"/>
<rect width="1.87682" height="22.6754" transform="matrix(-0.999737 -0.0229221 -0.0229221 0.999737 233.396 381.043)" fill="white"/>
<rect width="2" height="24.9036" transform="matrix(-0.934561 -0.355804 -0.355804 0.934561 343.396 380.712)" fill="white"/>
<rect width="2" height="27.7556" transform="matrix(-0.850206 -0.52645 -0.52645 0.850206 406.396 381.053)" fill="white"/>
<rect width="2" height="27.7556" transform="matrix(-0.850206 -0.52645 -0.52645 0.850206 414.396 381.053)" fill="white"/>
<rect width="2" height="27.7556" transform="matrix(-0.850206 -0.52645 -0.52645 0.850206 421.396 381.053)" fill="white"/>
<rect width="2" height="29.7078" transform="matrix(-0.850206 -0.52645 -0.52645 0.850206 430.34 379.393)" fill="white"/>
<rect x="35" y="403" width="380" height="2" fill="white"/>
<rect x="27" y="388" width="396" height="2" fill="white"/>
<rect x="31" y="395" width="388" height="2" fill="white"/>
<rect x="22" y="380" width="406" height="2" fill="white"/>
<rect x="18" y="378" width="414" height="2" fill="black"/>
<ellipse cx="34.5" cy="405" rx="2.5" ry="1" fill="black"/>
<ellipse cx="14.5" cy="373" rx="2.5" ry="1" fill="black"/>
<rect width="2" height="37.56" transform="matrix(-0.850206 -0.52645 -0.52645 0.850206 436.161 373.717)" fill="black"/>
<ellipse rx="2.5" ry="1" transform="matrix(-1 0 0 1 415.5 405)" fill="black"/>
<ellipse rx="2.5" ry="1" transform="matrix(-1 0 0 1 435.5 373)" fill="black"/>
</svg>
