<svg width="108" height="54" viewBox="0 0 108 54" fill="none" xmlns="http://www.w3.org/2000/svg">
<g filter="url(#filter0_d)">
<rect x="73.5624" y="9.28319" width="26.425" height="4.63291" transform="rotate(156.889 73.5624 9.28319)" fill="#4E0000"/>
<rect x="76" y="9" width="35" height="4" transform="rotate(180 76 9)" fill="#B00000"/>
<rect x="101.918" y="7.2176" width="32.03" height="5.81615" transform="rotate(173.714 101.918 7.2176)" fill="black"/>
<path d="M4 12.5C4 6.14873 14.2975 1 27 1C39.7025 1 50 6.14873 50 12.5C50 18.8513 39.7025 24 27 24C14.2975 24 4 18.8513 4 12.5Z" fill="#5365FF"/>
<path d="M4 12.5C4 6.14873 14.2975 1 27 1C39.7025 1 50 6.14873 50 12.5C50 18.8513 39.7025 24 27 24C14.2975 24 4 18.8513 4 12.5Z" stroke="black"/>
<ellipse cx="100.5" cy="4" rx="3.5" ry="4" transform="rotate(180 100.5 4)" fill="white"/>
<ellipse cx="28.5" cy="14.5" rx="24.5" ry="11.5" transform="rotate(180 28.5 14.5)" fill="#B9B9B9"/>
<ellipse cx="102" cy="4" rx="2" ry="3" transform="rotate(180 102 4)" fill="#191919"/>
<rect x="52.7161" y="14.4114" width="40.8694" height="0.236338" transform="rotate(167.481 52.7161 14.4114)" fill="white"/>
<rect x="52.2983" y="16.9483" width="35.6867" height="0.236338" transform="rotate(167.481 52.2983 16.9483)" fill="white"/>
<rect x="49.9543" y="19.9129" width="26.5939" height="0.236338" transform="rotate(167.481 49.9543 19.9129)" fill="white"/>
<rect x="52.7019" y="14.998" width="12.0224" height="0.236338" transform="rotate(-132.657 52.7019 14.998)" fill="white"/>
<rect x="51.6244" y="17.9991" width="18.3829" height="0.236338" transform="rotate(-132.657 51.6244 17.9991)" fill="white"/>
<rect x="49.7087" y="20.0907" width="22.2915" height="0.236338" transform="rotate(-132.657 49.7087 20.0907)" fill="white"/>
<rect x="47.3589" y="21.711" width="24.9629" height="0.236338" transform="rotate(-132.657 47.3589 21.711)" fill="white"/>
<rect x="44.6877" y="22.9826" width="26.7128" height="0.236338" transform="rotate(-132.657 44.6877 22.9826)" fill="white"/>
<rect x="41.8035" y="24.0228" width="27.7729" height="0.236338" transform="rotate(-132.657 41.8035 24.0228)" fill="white"/>
<rect x="38.654" y="24.7752" width="28.0791" height="0.236338" transform="rotate(-132.657 38.654 24.7752)" fill="white"/>
<rect x="35.419" y="25.4349" width="28.069" height="0.236338" transform="rotate(-132.657 35.419 25.4349)" fill="white"/>
<rect x="31.9039" y="25.7905" width="27.2248" height="0.236338" transform="rotate(-132.657 31.9039 25.7905)" fill="white"/>
<rect x="28.1589" y="25.8966" width="25.7736" height="0.236338" transform="rotate(-132.657 28.1589 25.8966)" fill="white"/>
<rect x="24.1818" y="25.7507" width="23.6538" height="0.236338" transform="rotate(-132.657 24.1818 25.7507)" fill="white"/>
<rect x="19.7963" y="25.1616" width="20.3151" height="0.236338" transform="rotate(-132.657 19.7963 25.1616)" fill="white"/>
<rect x="14.7932" y="23.9022" width="15.1515" height="0.236338" transform="rotate(-132.657 14.7932 23.9022)" fill="white"/>
<rect x="52.1945" y="12.0831" width="43.8165" height="0.236338" transform="rotate(167.481 52.1945 12.0831)" fill="white"/>
<rect x="50.6306" y="9.98629" width="44.8579" height="0.236338" transform="rotate(167.481 50.6306 9.98629)" fill="white"/>
<rect x="48.2173" y="8.07807" width="44.1738" height="0.236338" transform="rotate(167.481 48.2173 8.07807)" fill="white"/>
<rect x="44.9648" y="6.35618" width="41.6278" height="0.236338" transform="rotate(167.481 44.9648 6.35618)" fill="white"/>
<rect x="40.6027" y="4.88068" width="36.9446" height="0.236338" transform="rotate(167.481 40.6027 4.88068)" fill="white"/>
<rect x="34.684" y="3.75084" width="29.0433" height="0.236338" transform="rotate(167.481 34.684 3.75084)" fill="white"/>
<rect x="24.9869" y="3.45998" width="13.0063" height="0.236338" transform="rotate(167.481 24.9869 3.45998)" fill="white"/>
<path d="M4.25 14.5C4.25 11.4784 6.86877 8.66615 11.2821 6.59458C15.6756 4.53232 21.7628 3.25 28.5 3.25C35.2372 3.25 41.3244 4.53232 45.7179 6.59458C50.1312 8.66615 52.75 11.4784 52.75 14.5C52.75 17.5216 50.1312 20.3339 45.7179 22.4054C41.3244 24.4677 35.2372 25.75 28.5 25.75C21.7628 25.75 15.6756 24.4677 11.2821 22.4054C6.86877 20.3339 4.25 17.5216 4.25 14.5Z" stroke="black" stroke-width="0.5"/>
</g>
<defs>
<filter id="filter0_d" x="0" y="0" width="108" height="54" filterUnits="userSpaceOnUse" color-interpolation-filters="sRGB">
<feFlood flood-opacity="0" result="BackgroundImageFix"/>
<feColorMatrix in="SourceAlpha" type="matrix" values="0 0 0 0 0 0 0 0 0 0 0 0 0 0 0 0 0 0 127 0"/>
<feOffset dy="24"/>
<feGaussianBlur stdDeviation="2"/>
<feColorMatrix type="matrix" values="0 0 0 0 0 0 0 0 0 0 0 0 0 0 0 0 0 0 0.25 0"/>
<feBlend mode="normal" in2="BackgroundImageFix" result="effect1_dropShadow"/>
<feBlend mode="normal" in="SourceGraphic" in2="effect1_dropShadow" result="shape"/>
</filter>
</defs>
</svg>
