<svg width="100" height="20" viewBox="0 0 100 20" fill="none" xmlns="http://www.w3.org/2000/svg">
<rect width="98" height="4" transform="matrix(1 0 0 -1 1 5)" fill="#638FFF"/>
<rect width="14" height="3" transform="matrix(1 0 0 -1 1 8)" fill="#638FFF"/>
<rect width="23" height="3" transform="matrix(1 0 0 -1 38 6)" fill="#638FFF"/>
<rect width="28.5815" height="3" transform="matrix(0.99563 -0.093386 -0.093386 -0.99563 14.2802 8)" fill="#638FFF"/>
<rect width="9.89407" height="3.62793" transform="matrix(0.939417 -0.342777 -0.342777 -0.939417 1.28342 11.4672)" fill="#638FFF"/>
<rect x="100" y="8" width="15" height="3" transform="rotate(-180 100 8)" fill="#638FFF"/>
<rect x="85.4566" y="7.51538" width="28.5815" height="3" transform="rotate(-174.642 85.4566 7.51538)" fill="#638FFF"/>
<rect x="99.1163" y="10.9134" width="13.4361" height="3.62793" transform="rotate(-168.394 99.1163 10.9134)" fill="#638FFF"/>
<rect width="98" height="1" transform="matrix(1 0 0 -1 1 13)" fill="white"/>
<rect width="80" height="1" transform="matrix(1 0 0 -1 10 9)" fill="white"/>
<rect width="80" height="1" transform="matrix(1 0 0 -1 10 17)" fill="white"/>
<rect width="1" height="13" transform="matrix(1 0 0 -1 53 19)" fill="white"/>
<rect width="0.638304" height="13" transform="matrix(0.999993 0.00380466 0.00380466 -0.999993 48.3799 18.9915)" fill="white"/>
<rect width="0.638304" height="13" transform="matrix(0.999993 0.00380466 0.00380466 -0.999993 51 18.9976)" fill="white"/>
<rect width="1" height="13" transform="matrix(0.998954 -0.045734 -0.045734 -0.998954 56.2978 19.0161)" fill="white"/>
<rect width="1" height="13" transform="matrix(0.992452 -0.122632 -0.122632 -0.992452 60.0976 18.9962)" fill="white"/>
<rect width="1" height="13" transform="matrix(0.985072 -0.172141 -0.172141 -0.985072 63.2378 19)" fill="white"/>
<rect width="1" height="13.2182" transform="matrix(0.974086 -0.226176 -0.226176 -0.974086 66.5946 18.9556)" fill="white"/>
<rect width="1" height="13.2182" transform="matrix(0.963385 -0.268121 -0.268121 -0.963385 69.5441 19)" fill="white"/>
<rect width="1" height="13.2182" transform="matrix(0.948367 -0.317176 -0.317176 -0.948367 73.1925 19)" fill="white"/>
<rect width="1" height="12.8836" transform="matrix(0.948367 -0.317176 -0.317176 -0.948367 76.0864 18.6827)" fill="white"/>
<rect width="1" height="12.1943" transform="matrix(0.948367 -0.317176 -0.317176 -0.948367 78.8678 18.3463)" fill="white"/>
<rect width="1" height="11.6833" transform="matrix(0.948367 -0.317176 -0.317176 -0.948367 81.8678 18)" fill="white"/>
<rect width="1" height="11.4244" transform="matrix(0.91105 -0.412296 -0.412296 -0.91105 85.1732 17.5937)" fill="white"/>
<rect width="1" height="10.3607" transform="matrix(0.883212 -0.468974 -0.468974 -0.883212 88.5792 16.9151)" fill="white"/>
<rect width="1" height="9.28365" transform="matrix(0.883212 -0.468974 -0.468974 -0.883212 91.5741 16.4637)" fill="white"/>
<rect width="1" height="7.92987" transform="matrix(0.825346 -0.564627 -0.564627 -0.825346 94.7704 15.4697)" fill="white"/>
<rect width="1" height="6.03484" transform="matrix(0.825346 -0.564627 -0.564627 -0.825346 97.3142 14.7614)" fill="white"/>
<rect x="47.1396" y="18.9839" width="1" height="13" transform="rotate(-180 47.1396 18.9839)" fill="white"/>
<rect x="43.8418" y="19" width="1" height="13" transform="rotate(-177.379 43.8418 19)" fill="white"/>
<rect x="40.0419" y="18.9801" width="1" height="13" transform="rotate(-172.956 40.0419 18.9801)" fill="white"/>
<rect x="36.9017" y="18.9839" width="1" height="13" transform="rotate(-170.088 36.9017 18.9839)" fill="white"/>
<rect x="33.545" y="18.9395" width="1" height="13.2182" transform="rotate(-166.928 33.545 18.9395)" fill="white"/>
<rect x="30.5955" y="18.9839" width="1" height="13.2182" transform="rotate(-164.448 30.5955 18.9839)" fill="white"/>
<rect x="26.9471" y="18.9839" width="1" height="13.2182" transform="rotate(-161.508 26.9471 18.9839)" fill="white"/>
<rect x="24.0532" y="18.6666" width="1" height="12.8836" transform="rotate(-161.508 24.0532 18.6666)" fill="white"/>
<rect x="21.2718" y="18.3302" width="1" height="12.1943" transform="rotate(-161.508 21.2718 18.3302)" fill="white"/>
<rect x="18.2718" y="17.9839" width="1" height="11.6833" transform="rotate(-161.508 18.2718 17.9839)" fill="white"/>
<rect x="14.9663" y="17.5776" width="1" height="11.4244" transform="rotate(-155.651 14.9663 17.5776)" fill="white"/>
<rect x="11.5603" y="16.899" width="1" height="10.3607" transform="rotate(-152.032 11.5603 16.899)" fill="white"/>
<rect x="8.56541" y="16.4476" width="1" height="9.28365" transform="rotate(-152.032 8.56541 16.4476)" fill="white"/>
<rect x="5.3692" y="15.4536" width="1" height="7.92987" transform="rotate(-145.624 5.3692 15.4536)" fill="white"/>
<rect x="2.82535" y="14.7454" width="1" height="6.03484" transform="rotate(-145.624 2.82535 14.7454)" fill="white"/>
<path d="M99.5 12.5C99.5 12.2238 99.3113 11.8483 98.6886 11.3917C98.0795 10.9453 97.1495 10.4937 95.9036 10.0519C93.418 9.17041 89.7935 8.36801 85.2812 7.69117C76.2643 6.33863 63.7903 5.5 50 5.5C36.2097 5.5 23.7357 6.33863 14.7188 7.69117C10.2065 8.36801 6.58198 9.17041 4.09637 10.0519C2.85051 10.4937 1.92048 10.9453 1.31142 11.3917C0.688664 11.8483 0.5 12.2238 0.5 12.5C0.5 12.7762 0.688664 13.1517 1.31142 13.6083C1.92048 14.0547 2.85051 14.5063 4.09637 14.9481C6.58198 15.8296 10.2065 16.632 14.7188 17.3088C23.7357 18.6614 36.2097 19.5 50 19.5C63.7903 19.5 76.2643 18.6614 85.2812 17.3088C89.7935 16.632 93.418 15.8296 95.9036 14.9481C97.1495 14.5063 98.0795 14.0547 98.6886 13.6083C99.3113 13.1517 99.5 12.7762 99.5 12.5Z" stroke="black"/>
<rect width="1" height="13" transform="matrix(1 0 0 -1 0 13)" fill="black"/>
<rect width="1" height="13" transform="matrix(1 0 0 -1 99 13)" fill="black"/>
<rect width="100" height="1" transform="matrix(1 0 0 -1 0 1)" fill="black"/>
</svg>
