<svg width="108" height="54" viewBox="0 0 108 54" fill="none" xmlns="http://www.w3.org/2000/svg">
<g filter="url(#filter0_d)">
<rect x="34.4376" y="16.7168" width="26.425" height="4.63291" transform="rotate(-23.1112 34.4376 16.7168)" fill="#4E0000"/>
<rect x="32" y="17" width="35" height="4" fill="#B00000"/>
<rect x="6.0816" y="18.7824" width="32.03" height="5.81615" transform="rotate(-6.28588 6.0816 18.7824)" fill="black"/>
<path d="M104 13.5C104 19.8513 93.7025 25 81 25C68.2975 25 58 19.8513 58 13.5C58 7.14873 68.2975 2 81 2C93.7025 2 104 7.14873 104 13.5Z" fill="#80FF53"/>
<path d="M104 13.5C104 19.8513 93.7025 25 81 25C68.2975 25 58 19.8513 58 13.5C58 7.14873 68.2975 2 81 2C93.7025 2 104 7.14873 104 13.5Z" stroke="black"/>
<ellipse cx="7.5" cy="22" rx="3.5" ry="4" fill="white"/>
<ellipse cx="79.5" cy="11.5" rx="24.5" ry="11.5" fill="black"/>
<ellipse cx="6" cy="22" rx="2" ry="3" fill="#191919"/>
<rect x="55.2839" y="11.5886" width="40.8694" height="0.236338" transform="rotate(-12.5194 55.2839 11.5886)" fill="white"/>
<rect x="55.7017" y="9.05173" width="35.6867" height="0.236338" transform="rotate(-12.5194 55.7017 9.05173)" fill="white"/>
<rect x="58.0457" y="6.08715" width="26.5939" height="0.236338" transform="rotate(-12.5194 58.0457 6.08715)" fill="white"/>
<rect x="55.2981" y="11.002" width="12.0224" height="0.236338" transform="rotate(47.3434 55.2981 11.002)" fill="white"/>
<rect x="56.3756" y="8.00086" width="18.3829" height="0.236338" transform="rotate(47.3434 56.3756 8.00086)" fill="white"/>
<rect x="58.2913" y="5.90931" width="22.2915" height="0.236338" transform="rotate(47.3434 58.2913 5.90931)" fill="white"/>
<rect x="60.6411" y="4.28898" width="24.9629" height="0.236338" transform="rotate(47.3434 60.6411 4.28898)" fill="white"/>
<rect x="63.3123" y="3.01744" width="26.7128" height="0.236338" transform="rotate(47.3434 63.3123 3.01744)" fill="white"/>
<rect x="66.1965" y="1.9772" width="27.7729" height="0.236338" transform="rotate(47.3434 66.1965 1.9772)" fill="white"/>
<rect x="69.346" y="1.22476" width="28.0791" height="0.236338" transform="rotate(47.3434 69.346 1.22476)" fill="white"/>
<rect x="72.581" y="0.565126" width="28.069" height="0.236338" transform="rotate(47.3434 72.581 0.565126)" fill="white"/>
<rect x="76.0961" y="0.209511" width="27.2248" height="0.236338" transform="rotate(47.3434 76.0961 0.209511)" fill="white"/>
<rect x="79.8411" y="0.103424" width="25.7736" height="0.236338" transform="rotate(47.3434 79.8411 0.103424)" fill="white"/>
<rect x="83.8182" y="0.249264" width="23.6538" height="0.236338" transform="rotate(47.3434 83.8182 0.249264)" fill="white"/>
<rect x="88.2037" y="0.83839" width="20.3151" height="0.236338" transform="rotate(47.3434 88.2037 0.83839)" fill="white"/>
<rect x="93.2068" y="2.09776" width="15.1515" height="0.236338" transform="rotate(47.3434 93.2068 2.09776)" fill="white"/>
<rect x="55.8055" y="13.9169" width="43.8165" height="0.236338" transform="rotate(-12.5194 55.8055 13.9169)" fill="white"/>
<rect x="57.3694" y="16.0137" width="44.8579" height="0.236338" transform="rotate(-12.5194 57.3694 16.0137)" fill="white"/>
<rect x="59.7827" y="17.9219" width="44.1738" height="0.236338" transform="rotate(-12.5194 59.7827 17.9219)" fill="white"/>
<rect x="63.0352" y="19.6438" width="41.6278" height="0.236338" transform="rotate(-12.5194 63.0352 19.6438)" fill="white"/>
<rect x="67.3973" y="21.1193" width="36.9446" height="0.236338" transform="rotate(-12.5194 67.3973 21.1193)" fill="white"/>
<rect x="73.316" y="22.2492" width="29.0433" height="0.236338" transform="rotate(-12.5194 73.316 22.2492)" fill="white"/>
<rect x="83.0131" y="22.54" width="13.0063" height="0.236338" transform="rotate(-12.5194 83.0131 22.54)" fill="white"/>
<path d="M103.75 11.5C103.75 14.5216 101.131 17.3339 96.7179 19.4054C92.3244 21.4677 86.2372 22.75 79.5 22.75C72.7628 22.75 66.6756 21.4677 62.2821 19.4054C57.8688 17.3339 55.25 14.5216 55.25 11.5C55.25 8.47842 57.8688 5.66615 62.2821 3.59458C66.6756 1.53232 72.7628 0.25 79.5 0.25C86.2372 0.25 92.3244 1.53232 96.7179 3.59458C101.131 5.66615 103.75 8.47842 103.75 11.5Z" stroke="black" stroke-width="0.5"/>
</g>
<defs>
<filter id="filter0_d" x="0" y="0" width="108" height="54" filterUnits="userSpaceOnUse" color-interpolation-filters="sRGB">
<feFlood flood-opacity="0" result="BackgroundImageFix"/>
<feColorMatrix in="SourceAlpha" type="matrix" values="0 0 0 0 0 0 0 0 0 0 0 0 0 0 0 0 0 0 127 0"/>
<feOffset dy="24"/>
<feGaussianBlur stdDeviation="2"/>
<feColorMatrix type="matrix" values="0 0 0 0 0 0 0 0 0 0 0 0 0 0 0 0 0 0 0.25 0"/>
<feBlend mode="normal" in2="BackgroundImageFix" result="effect1_dropShadow"/>
<feBlend mode="normal" in="SourceGraphic" in2="effect1_dropShadow" result="shape"/>
</filter>
</defs>
</svg>
